<svg width="20" height="20" viewBox="0 0 20 20" fill="none" xmlns="http://www.w3.org/2000/svg">
<path fill-rule="evenodd" clip-rule="evenodd" d="M3.25764 3.78946C4.93204 1.97256 7.33267 0.833008 10 0.833008C15.0627 0.833008 19.1667 4.93706 19.1667 9.99967C19.1667 15.0623 15.0627 19.1663 10 19.1663C4.93743 19.1663 0.833374 15.0623 0.833374 9.99967C0.833374 9.53944 1.20647 9.16634 1.66671 9.16634C2.12694 9.16634 2.50004 9.53944 2.50004 9.99967C2.50004 14.1418 5.8579 17.4997 10 17.4997C14.1422 17.4997 17.5 14.1418 17.5 9.99967C17.5 5.85754 14.1422 2.49967 10 2.49967C7.7795 2.49967 5.78363 3.46442 4.40964 4.99967H5.45462C5.91486 4.99967 6.28796 5.37277 6.28796 5.83301C6.28796 6.29324 5.91486 6.66634 5.45462 6.66634H2.42431C1.96407 6.66634 1.59097 6.29324 1.59097 5.83301V2.80271C1.59097 2.34247 1.96407 1.96938 2.42431 1.96938C2.88454 1.96938 3.25764 2.34247 3.25764 2.80271V3.78946ZM10.0022 4.16634C10.4624 4.16639 10.8355 4.53952 10.8355 4.99976L10.835 9.6582L14.124 12.9472C14.4494 13.2726 14.4494 13.8002 14.124 14.1257C13.7985 14.4511 13.2709 14.4511 12.9455 14.1257L9.41237 10.5926C9.25607 10.4363 9.16827 10.2243 9.16829 10.0033L9.16879 4.99959C9.16884 4.53935 9.54197 4.1663 10.0022 4.16634Z" fill="#3F8826"/>
</svg>
