<svg width="32" height="32" viewBox="0 0 32 32" fill="none" xmlns="http://www.w3.org/2000/svg">
<path d="M12 16.0003C12 15.2639 12.5969 14.667 13.3333 14.667H24C24.7364 14.667 25.3333 15.2639 25.3333 16.0003C25.3333 16.7367 24.7364 17.3337 24 17.3337H13.3333C12.5969 17.3337 12 16.7367 12 16.0003Z" fill="#6B7280"/>
<path d="M13.3333 20.0003C12.5969 20.0003 12 20.5973 12 21.3337C12 22.07 12.5969 22.667 13.3333 22.667H24C24.7364 22.667 25.3333 22.07 25.3333 21.3337C25.3333 20.5973 24.7364 20.0003 24 20.0003H13.3333Z" fill="#6B7280"/>
<path d="M6.66666 16.0003C6.66666 15.2639 7.26362 14.667 7.99999 14.667H9.33333C10.0697 14.667 10.6667 15.2639 10.6667 16.0003C10.6667 16.7367 10.0697 17.3337 9.33333 17.3337H7.99999C7.26362 17.3337 6.66666 16.7367 6.66666 16.0003Z" fill="#6B7280"/>
<path d="M7.99999 20.0003C7.26362 20.0003 6.66666 20.5973 6.66666 21.3337C6.66666 22.07 7.26362 22.667 7.99999 22.667H9.33333C10.0697 22.667 10.6667 22.07 10.6667 21.3337C10.6667 20.5973 10.0697 20.0003 9.33333 20.0003H7.99999Z" fill="#6B7280"/>
<path fill-rule="evenodd" clip-rule="evenodd" d="M1.33333 6.00033C1.33333 4.15938 2.82571 2.66699 4.66666 2.66699H27.3333C29.1743 2.66699 30.6667 4.15938 30.6667 6.00033V26.0003C30.6667 27.8413 29.1743 29.3337 27.3333 29.3337H4.66666C2.82571 29.3337 1.33333 27.8413 1.33333 26.0003V6.00033ZM3.99999 6.00033C3.99999 5.63214 4.29847 5.33366 4.66666 5.33366H27.3333C27.7015 5.33366 28 5.63214 28 6.00033V8.00033H3.99999V6.00033ZM28 10.667V26.0003C28 26.3685 27.7015 26.667 27.3333 26.667H4.66666C4.29847 26.667 3.99999 26.3685 3.99999 26.0003V10.667H28Z" fill="#6B7280"/>
</svg>
