<svg width="20" height="20" viewBox="0 0 20 20" fill="none" xmlns="http://www.w3.org/2000/svg">
<path fill-rule="evenodd" clip-rule="evenodd" d="M10 4.16699C10.3157 4.16699 10.6042 4.34533 10.7454 4.62765L13.2894 9.71563L16.7107 8.00497C16.8281 7.94626 16.9549 7.91731 17.0811 7.91699C17.2724 7.91649 17.4623 7.98186 17.6156 8.10907C17.8699 8.32012 17.9754 8.6615 17.8846 8.97926L15.3846 17.7293C15.2824 18.087 14.9554 18.3337 14.5834 18.3337H5.41671C5.04464 18.3337 4.71765 18.087 4.61544 17.7293L2.11544 8.97926C2.02465 8.6615 2.13021 8.32012 2.38451 8.10907C2.53778 7.98186 2.72764 7.91649 2.91901 7.91699C3.04515 7.91731 3.17196 7.94626 3.28939 8.00497L6.71069 9.71563L9.25468 4.62765C9.39584 4.34533 9.6844 4.16699 10 4.16699ZM10 6.86372L7.82873 11.2063C7.62291 11.618 7.12234 11.7848 6.71069 11.579L4.2384 10.3429L6.04529 16.667H13.9548L15.7617 10.3429L13.2894 11.579C12.8777 11.7848 12.3772 11.618 12.1714 11.2063L10 6.86372Z" fill="#3F8826"/>
<path fill-rule="evenodd" clip-rule="evenodd" d="M2.91671 7.08366C2.68659 7.08366 2.50004 7.27021 2.50004 7.50033C2.50004 7.73044 2.68659 7.91699 2.91671 7.91699L2.91901 7.91699C3.14807 7.91574 3.33337 7.72967 3.33337 7.50033C3.33337 7.27021 3.14683 7.08366 2.91671 7.08366ZM0.833374 7.50033C0.833374 6.34973 1.76611 5.41699 2.91671 5.41699C4.0673 5.41699 5.00004 6.34973 5.00004 7.50033C5.00004 8.65092 4.0673 9.58366 2.91671 9.58366C1.76611 9.58366 0.833374 8.65092 0.833374 7.50033Z" fill="#3F8826"/>
<path fill-rule="evenodd" clip-rule="evenodd" d="M10 3.33366C9.76992 3.33366 9.58337 3.52021 9.58337 3.75033C9.58337 3.98044 9.76992 4.16699 10 4.16699C10.2302 4.16699 10.4167 3.98044 10.4167 3.75033C10.4167 3.52021 10.2302 3.33366 10 3.33366ZM7.91671 3.75033C7.91671 2.59973 8.84945 1.66699 10 1.66699C11.1506 1.66699 12.0834 2.59973 12.0834 3.75033C12.0834 4.90092 11.1506 5.83366 10 5.83366C8.84945 5.83366 7.91671 4.90092 7.91671 3.75033Z" fill="#3F8826"/>
<path fill-rule="evenodd" clip-rule="evenodd" d="M17.0834 7.08366C16.8533 7.08366 16.6667 7.27021 16.6667 7.50033C16.6667 7.72967 16.852 7.91574 17.0811 7.91699L17.0834 7.91699C17.3135 7.91699 17.5 7.73044 17.5 7.50033C17.5 7.27021 17.3135 7.08366 17.0834 7.08366ZM15 7.50033C15 6.34973 15.9328 5.41699 17.0834 5.41699C18.234 5.41699 19.1667 6.34973 19.1667 7.50033C19.1667 8.65092 18.234 9.58366 17.0834 9.58366C15.9328 9.58366 15 8.65092 15 7.50033Z" fill="#3F8826"/>
<path d="M2.91667 7.08301C2.68655 7.08301 2.5 7.26956 2.5 7.49967C2.5 7.72979 2.68655 7.91634 2.91667 7.91634L2.91897 7.91633C3.14803 7.91509 3.33333 7.72902 3.33333 7.49967C3.33333 7.26956 3.14679 7.08301 2.91667 7.08301Z" fill="#3F8826"/>
<path d="M10 3.33301C9.76988 3.33301 9.58333 3.51956 9.58333 3.74967C9.58333 3.97979 9.76988 4.16634 10 4.16634C10.2301 4.16634 10.4167 3.97979 10.4167 3.74967C10.4167 3.51956 10.2301 3.33301 10 3.33301Z" fill="#3F8826"/>
<path d="M17.0833 7.08301C16.8532 7.08301 16.6667 7.26956 16.6667 7.49967C16.6667 7.72902 16.852 7.91509 17.081 7.91633L17.0833 7.91634C17.3135 7.91634 17.5 7.72979 17.5 7.49967C17.5 7.26956 17.3135 7.08301 17.0833 7.08301Z" fill="#3F8826"/>
</svg>
